<?xml version="1.0" encoding="utf-8"?>
<!-- Generator: Adobe Illustrator 27.0.0, SVG Export Plug-In . SVG Version: 6.00 Build 0)  -->
<svg version="1.1" id="Layer_1" xmlns="http://www.w3.org/2000/svg" xmlns:xlink="http://www.w3.org/1999/xlink" x="0px" y="0px"
	 viewBox="0 0 200 200" style="enable-background:new 0 0 200 200;" xml:space="preserve">
<style type="text/css">
	.st0{fill:#FFFFFF;}
</style>
<g>
	<path class="st0" d="M85.53,77.67c0,10.01,0,19.59,0,29.64c-3.47,0-6.85-0.12-10.22,0.02c-12.78,0.53-23.04,8.99-26.08,21.41
		c-3.72,15.19,6.63,31.06,21.94,33.64c16.32,2.75,31.27-8.4,32.75-24.47c0.17-1.87,0.25-3.76,0.25-5.64
		c0.01-40.38,0.01-80.76,0.01-121.14c0-1.16,0-2.32,0-3.67c9.88,0,19.6,0,29.31,0c4.41,32.11,20.05,43.46,47.59,46.88
		c0,9.7,0,19.43,0,29.47c-17.21-0.74-32.74-5.97-47.28-15.88c0,1.54,0,2.57,0,3.6c0,20.82,0.05,41.64-0.01,62.45
		c-0.07,25.09-14.5,46.2-37.37,54.86c-35.08,13.3-73.75-10.82-77.24-48.17c-3.13-33.51,22.26-62.11,55.95-62.99
		C78.52,77.6,81.91,77.67,85.53,77.67z"/>
</g>
</svg>
